<?xml version="1.0" encoding="utf-8"?>
<!-- Generator: Adobe Illustrator 16.0.0, SVG Export Plug-In . SVG Version: 6.00 Build 0)  -->
<!DOCTYPE svg PUBLIC "-//W3C//DTD SVG 1.1//EN" "http://www.w3.org/Graphics/SVG/1.1/DTD/svg11.dtd">
<svg version="1.1" id="Layer_1" xmlns="http://www.w3.org/2000/svg" xmlns:xlink="http://www.w3.org/1999/xlink" x="0px" y="0px"
	 width="512px" height="512px" viewBox="0 0 512 512" enable-background="new 0 0 512 512" xml:space="preserve">
<path d="M512,336v64c0,35.344-28.656,64-64,64c-17.688,0-32-14.313-32-32V240c0-88.375-71.625-160-160-160
	c-88.359,0-160,71.625-160,160v192c0,17.688-14.313,32-32,32c-35.344,0-64-28.656-64-64v-64c0-35.344,28.656-64,64-64v-32
	c0-106.031,85.969-192,192-192s192,85.969,192,192v32C483.344,272,512,300.656,512,336z"/>
</svg>
